<svg width="35" height="35" viewBox="0 0 35 35" fill="none" xmlns="http://www.w3.org/2000/svg">
<path d="M17.4979 0L0 17.4979L17.4979 34.9958L34.9958 17.4979L17.4979 0ZM3.57032 17.4979L17.4979 3.57032L31.4255 17.4979L17.4979 31.4255L3.57032 17.4979Z" fill="black"/>
<path d="M17.4978 6.96191C13.4281 6.96191 9.72461 11.9845 9.72461 17.4981C9.72461 23.0117 13.4281 28.0343 17.4978 28.0343C21.5674 28.0343 25.2709 23.0117 25.2709 17.4981C25.2709 11.9845 21.5674 6.96191 17.4978 6.96191ZM12.2546 17.4981C12.2546 15.0763 13.1909 12.6836 14.51 11.1523C14.3852 11.7057 14.3186 12.2758 14.3186 12.8584C14.3186 14.9473 15.1342 16.9114 16.6073 18.3886C18.5381 20.3194 18.6629 23.3779 16.9859 25.4544C14.5225 24.9925 12.2546 21.2807 12.2546 17.4981ZM20.4814 23.8523C21.0473 21.3223 20.3565 18.5676 18.3924 16.6035C16.4616 14.6727 16.3368 11.6142 18.0138 9.53771C20.473 10.0038 22.7451 13.7156 22.7451 17.4981C22.7451 19.9283 21.8046 22.3251 20.4814 23.8523Z" fill="black"/>
</svg>
